<!-- sample rectangle -->
<svg id="Layer_1" data-name="Layer 1" xmlns="http://www.w3.org/2000/svg" viewBox="0 0 783.97 783.97">
  <defs>
    <style>
      .cls-1 {
        fill: #fff;
        stroke-width: 0px;
      }
    </style>
  </defs>
  <path class="cls-1" d="M761.95,345.67c-.46,70.8-11.7,134.45-39.82,194.55-21.95,46.9-52.38,87.64-89.86,123.22-32.42,30.78-67.83,57.47-107.59,78.15-39.53,20.55-81.27,34.09-125.59,39.38-50.68,6.05-100.83,3.11-150.11-10.3-55.09-14.99-101.89-43.74-140.02-86.4-43.76-48.96-69.29-106.48-80.16-170.86-10.53-62.37-8.76-124.5,5-186.16,13.61-60.97,40.13-115.91,79.61-164.42,37.17-45.67,80.92-83.85,131.83-113.5,42.5-24.76,88.09-41.02,137.13-46.53,59.43-6.68,117.74-1.77,174.29,18.71,51.51,18.66,94.32,49.64,129.12,91.84,37.61,45.61,59.45,98.24,69.21,156.15,2.38,14.11,4.15,28.36,5.42,42.61,1.14,12.76,1.2,25.62,1.53,33.56ZM652.03,439.08c-.4-35.77-3.87-71.16-12.65-105.93-17.52-69.39-52.36-129.32-100.04-182.05-27.85-30.8-61.15-54.28-99.39-70.76-38.74-16.7-78.95-20.69-120.42-14.89-29.42,4.12-57.02,13.39-81.94,29.81-34.61,22.8-58.03,54.96-75.62,91.79-17.83,37.32-26.57,76.96-29.49,118.04-3.34,46.91-.09,93.3,12.19,138.75,22.32,82.62,66.12,151.97,131.31,207.38,45.76,38.89,98.73,59.6,159.3,59.97,37.71.23,72.7-9.04,104.1-29.83,41.51-27.5,70.63-65.39,89.49-111.24,17.25-41.95,22.98-86.02,23.17-131.02Z"/>
</svg>